<svg width="28" height="28" viewBox="0 0 28 28" fill="none" xmlns="http://www.w3.org/2000/svg">
<path d="M26.9439 1.05746C26.239 0.352382 25.3943 0 24.4102 0H3.59228C2.60786 0 1.7634 0.352509 1.05831 1.05746C0.353358 1.76223 0.000976562 2.60682 0.000976562 3.59105V24.4088C0.000976562 25.3929 0.353294 26.2376 1.05831 26.9425C1.7634 27.6474 2.60805 28 3.59228 28H24.4099C25.3938 28 26.2388 27.6474 26.9437 26.9425C27.6488 26.2376 28.0008 25.3929 28.0008 24.4088V3.59105C28.0008 2.60663 27.6488 1.76248 26.9439 1.05746ZM10.0547 10.0897C11.1544 9.0265 12.4761 8.49464 14.0195 8.49464C15.5748 8.49464 16.9025 9.0265 18.0024 10.0897C19.1024 11.1531 19.6521 12.4384 19.6521 13.9453C19.6521 15.452 19.1024 16.7373 18.0024 17.8004C16.9025 18.8641 15.5753 19.3959 14.0195 19.3959C12.4761 19.3959 11.1546 18.8636 10.0547 17.8004C8.95469 16.7372 8.40476 15.452 8.40476 13.9453C8.40476 12.4384 8.95469 11.1532 10.0547 10.0897ZM24.8295 23.6617C24.8295 23.9774 24.7198 24.2416 24.5012 24.4544C24.282 24.667 24.0211 24.7734 23.717 24.7734H4.23038C3.91446 24.7734 3.64994 24.667 3.43745 24.4544C3.22464 24.242 3.11833 23.9774 3.11833 23.6617V11.8487H5.68856C5.44562 12.6145 5.32412 13.4106 5.32412 14.2368C5.32412 16.5707 6.17471 18.5603 7.87609 20.2074C9.57766 21.8538 11.6254 22.6774 14.0194 22.6774C15.5993 22.6774 17.0575 22.3005 18.3948 21.5471C19.7316 20.7932 20.7882 19.7696 21.5665 18.4752C22.3444 17.1808 22.7333 15.768 22.7333 14.2369C22.7333 13.4107 22.6114 12.6147 22.3684 11.8488H24.8296V23.6617H24.8295V23.6617ZM24.8295 7.38258C24.8295 7.73503 24.708 8.03282 24.4645 8.27583C24.2216 8.51903 23.924 8.64047 23.5713 8.64047H20.3996C20.0473 8.64047 19.7493 8.51896 19.5063 8.27583C19.2633 8.03282 19.1419 7.73503 19.1419 7.38258V4.37505C19.1419 4.03473 19.2633 3.74007 19.5063 3.49087C19.7493 3.2418 20.0474 3.1171 20.3996 3.1171H23.5713C23.924 3.1171 24.2216 3.24173 24.4645 3.49087C24.7079 3.74007 24.8295 4.03473 24.8295 4.37505V7.38258Z" fill="white"/>
</svg>
