<svg width="28" height="22" viewBox="0 0 28 22" fill="none" xmlns="http://www.w3.org/2000/svg">
<path d="M9.12178 21.512C19.028 21.512 24.4452 13.305 24.4452 6.18857C24.4452 5.95548 24.4404 5.72335 24.43 5.49251C25.4814 4.73223 26.3953 3.7835 27.1164 2.70361C26.1515 3.13271 25.1129 3.42118 24.0237 3.55169C25.1355 2.88469 25.9892 1.83 26.3918 0.57273C25.3512 1.18965 24.1988 1.63785 22.972 1.87993C21.9893 0.83311 20.5899 0.178467 19.0406 0.178467C16.0666 0.178467 13.6547 2.59028 13.6547 5.5633C13.6547 5.98614 13.702 6.3971 13.7943 6.79136C9.31826 6.56614 5.34899 4.42321 2.69301 1.16445C2.23068 1.96019 1.96388 2.88485 1.96388 3.87147C1.96388 5.73972 2.9147 7.3895 4.36044 8.35428C3.47688 8.32716 2.64694 8.08459 1.92134 7.68086C1.92054 7.70349 1.92054 7.72549 1.92054 7.74957C1.92054 10.3579 3.77691 12.5356 6.24154 13.0291C5.78884 13.1522 5.31255 13.2185 4.82132 13.2185C4.4749 13.2185 4.13714 13.1845 3.80902 13.1214C4.49464 15.2613 6.48297 16.8184 8.8402 16.8621C6.99683 18.3069 4.67476 19.1675 2.15106 19.1675C1.71698 19.1675 1.28789 19.1426 0.866333 19.0928C3.24989 20.6206 6.0802 21.5122 9.12194 21.5122" fill="white"/>
</svg>
