<svg width="178" height="171" viewBox="0 0 178 171" fill="none" xmlns="http://www.w3.org/2000/svg">
<circle cx="102" cy="95" r="76" fill="#FFD600"/>
<path d="M99.702 66.9141C101.13 65.3574 102 63.3027 102 61.0547C102 56.209 97.962 52.2656 93 52.2656H75.532C77.262 47.1387 78 40.3359 78 37.4199V34.4922C78 28.0312 72.616 22.7734 66 22.7734H63C61.624 22.7734 60.424 23.6875 60.09 24.9922L58.456 31.377C56.166 40.3184 48.896 50.1836 41.372 51.9766C40.054 48.7188 36.8 46.4062 33 46.4062H15C13.344 46.4062 12 47.7188 12 49.3359V102.07C12 103.688 13.344 105 15 105H33C36.578 105 39.674 102.951 41.124 99.9902L51.432 103.346C54.802 104.443 58.314 105 61.868 105H87C91.962 105 96 101.057 96 96.2109C96 95.0684 95.776 93.9746 95.368 92.9727C99.184 91.9551 102 88.5391 102 84.4922C102 82.2441 101.13 80.1895 99.702 78.6328C101.13 77.0762 102 75.0215 102 72.7734C102 70.5254 101.13 68.4707 99.702 66.9141ZM36 96.2109C36 97.8262 34.654 99.1406 33 99.1406H18V52.2656H33C34.654 52.2656 36 53.5801 36 55.1953V96.2109ZM87 69.8438H93C94.654 69.8438 96 71.1582 96 72.7734C96 74.3887 94.654 75.7031 93 75.7031H87C85.344 75.7031 84 77.0156 84 78.6328C84 80.25 85.344 81.5625 87 81.5625H93C94.654 81.5625 96 82.877 96 84.4922C96 86.1074 94.654 87.4219 93 87.4219H87C85.344 87.4219 84 88.7344 84 90.3516C84 91.9688 85.344 93.2812 87 93.2812C88.654 93.2812 90 94.5957 90 96.2109C90 97.8262 88.654 99.1406 87 99.1406H61.868C58.96 99.1406 56.086 98.6855 53.328 97.7871L42 94.0996V57.8477C46.706 56.9746 51.312 54.0645 55.47 49.3008C59.53 44.6484 62.822 38.4805 64.276 32.7988L65.342 28.6328H66C69.308 28.6328 72 31.2617 72 34.4922V37.4199C72 41.3535 70.74 48.8984 69.128 52.2656H63C61.344 52.2656 60 53.5781 60 55.1953C60 56.8125 61.344 58.125 63 58.125H93C94.654 58.125 96 59.4395 96 61.0547C96 62.6699 94.654 63.9844 93 63.9844H87C85.344 63.9844 84 65.2969 84 66.9141C84 68.5312 85.344 69.8438 87 69.8438Z" fill="black"/>
<path d="M26.9999 93.2813C28.6567 93.2813 29.9999 91.9696 29.9999 90.3516C29.9999 88.7335 28.6567 87.4219 26.9999 87.4219C25.343 87.4219 23.9999 88.7335 23.9999 90.3516C23.9999 91.9696 25.343 93.2813 26.9999 93.2813Z" fill="black"/>
<path d="M69 5C67.3432 5 66 6.31172 66 7.92969V13.9844C66 15.6023 67.3432 16.9141 69 16.9141C70.6568 16.9141 72 15.6023 72 13.9844V7.92969C72 6.31172 70.6568 5 69 5Z" fill="black"/>
<path d="M56.2719 17.9195L52.0293 13.7764C50.8579 12.6322 48.9583 12.6322 47.7867 13.7764C46.6151 14.9205 46.6151 16.7754 47.7867 17.9195L52.0293 22.0627C53.2007 23.2067 55.1005 23.2068 56.2719 22.0627C57.4435 20.9186 57.4435 19.0637 56.2719 17.9195Z" fill="black"/>
<path d="M90.2133 13.7764C89.0419 12.6322 87.1423 12.6322 85.9707 13.7764L81.7281 17.9193C80.5565 19.0635 80.5565 20.9184 81.7281 22.0625C82.8995 23.2067 84.7991 23.2069 85.9707 22.0627L90.2133 17.9195C91.3849 16.7754 91.3849 14.9205 90.2133 13.7764Z" fill="black"/>
</svg>
