<svg width="174" height="171" viewBox="0 0 174 171" fill="none" xmlns="http://www.w3.org/2000/svg">
<circle cx="97.5" cy="95" r="76" fill="#FFD600"/>
<g clip-path="url(#clip0)">
<path fill-rule="evenodd" clip-rule="evenodd" d="M101.551 66.5845V21.8555C101.551 20.3505 100.331 19.1309 98.8262 19.1309H85.0215V16.2246C85.0215 14.7197 83.8018 13.5 82.2969 13.5C80.792 13.5 79.5723 14.7197 79.5723 16.2246V19.1309H68.6738V16.2246C68.6738 14.7197 67.4541 13.5 65.9492 13.5C64.4443 13.5 63.2246 14.7197 63.2246 16.2246V19.1309H52.3262V16.2246C52.3262 14.7197 51.1065 13.5 49.6016 13.5C48.0966 13.5 46.877 14.7197 46.877 16.2246V19.1309H35.9785V16.2246C35.9785 14.7197 34.7588 13.5 33.2539 13.5C31.749 13.5 30.5293 14.7197 30.5293 16.2246V19.1309H16.7246C15.2197 19.1309 14 20.3505 14 21.8555V92.877C14 94.3819 15.2197 95.6016 16.7246 95.6016H62.0993C66.5041 102.168 73.9946 106.5 82.4785 106.5C95.9994 106.5 107 95.4994 107 81.9785C107 76.1532 104.957 70.7963 101.551 66.5845ZM30.5293 24.5801V27.3047C30.5293 28.8096 31.749 30.0293 33.2539 30.0293C34.7588 30.0293 35.9785 28.8096 35.9785 27.3047V24.5801H46.877V27.3047C46.877 28.8096 48.0966 30.0293 49.6016 30.0293C51.1065 30.0293 52.3262 28.8096 52.3262 27.3047V24.5801H63.2246V27.3047C63.2246 28.8096 64.4443 30.0293 65.9492 30.0293C67.4541 30.0293 68.6738 28.8096 68.6738 27.3047V24.5801H79.5723V27.3047C79.5723 28.8096 80.792 30.0293 82.2969 30.0293C83.8018 30.0293 85.0215 28.8096 85.0215 27.3047V24.5801H96.1016V35.4785H19.4492V24.5801H30.5293ZM19.4492 90.1523V40.9277H96.1016V61.5993C92.2027 58.9847 87.5155 57.457 82.4785 57.457C73.869 57.457 66.2827 61.9179 61.9063 68.6485C61.538 68.4626 61.123 68.3555 60.6816 68.3555H55.2324C53.7275 68.3555 52.5078 69.5752 52.5078 71.0801C52.5078 72.585 53.7275 73.8047 55.2324 73.8047H59.3598C58.7446 75.5402 58.3189 77.3651 58.1096 79.2539H55.2324C53.7275 79.2539 52.5078 80.4736 52.5078 81.9785C52.5078 83.4834 53.7275 84.7031 55.2324 84.7031H58.1096C58.3189 86.5919 58.7439 88.4168 59.3598 90.1523H19.4492ZM82.4785 101.051C71.9618 101.051 63.4062 92.4952 63.4062 81.9785C63.4062 71.4618 71.9618 62.9062 82.4785 62.9062C92.9952 62.9062 101.551 71.4618 101.551 81.9785C101.551 92.4952 92.9952 101.051 82.4785 101.051ZM93.5219 79.3189H85.4349V70.895C85.4349 69.344 84.2282 68.087 82.7393 68.087C81.2504 68.087 80.0436 69.344 80.0436 70.895V82.1268C80.0436 83.6778 81.2504 84.9348 82.7393 84.9348H93.5219C95.0108 84.9348 96.2175 83.6778 96.2175 82.1268C96.2175 80.5759 95.0108 79.3189 93.5219 79.3189ZM33.5435 46.5218H38.9348C40.4237 46.5218 41.6305 47.7285 41.6305 49.2174C41.6305 50.7063 40.4237 51.9131 38.9348 51.9131H33.5435C32.0546 51.9131 30.8478 50.7063 30.8478 49.2174C30.8478 47.7285 32.0546 46.5218 33.5435 46.5218ZM38.9348 57.3044H33.5435C32.0546 57.3044 30.8478 58.5111 30.8478 60C30.8478 61.489 32.0546 62.6957 33.5435 62.6957H38.9348C40.4237 62.6957 41.6305 61.489 41.6305 60C41.6305 58.5111 40.4237 57.3044 38.9348 57.3044ZM33.5435 68.087H38.9348C40.4237 68.087 41.6305 69.2937 41.6305 70.7826C41.6305 72.2716 40.4237 73.4783 38.9348 73.4783H33.5435C32.0546 73.4783 30.8478 72.2716 30.8478 70.7826C30.8478 69.2937 32.0546 68.087 33.5435 68.087ZM55.1088 51.9131H60.5001C61.989 51.9131 63.1957 50.7063 63.1957 49.2174C63.1957 47.7285 61.989 46.5218 60.5001 46.5218H55.1088C53.6199 46.5218 52.4131 47.7285 52.4131 49.2174C52.4131 50.7063 53.6199 51.9131 55.1088 51.9131ZM60.5001 62.6957H55.1088C53.6199 62.6957 52.4131 61.489 52.4131 60C52.4131 58.5111 53.6199 57.3044 55.1088 57.3044H60.5001C61.989 57.3044 63.1957 58.5111 63.1957 60C63.1957 61.489 61.989 62.6957 60.5001 62.6957ZM38.9348 79.5434H33.5435C32.0546 79.5434 30.8478 80.7502 30.8478 82.2391C30.8478 83.728 32.0546 84.9348 33.5435 84.9348H38.9348C40.4237 84.9348 41.6305 83.728 41.6305 82.2391C41.6305 80.7502 40.4237 79.5434 38.9348 79.5434ZM82.5706 51.9131H76.8423C75.2603 51.9131 73.9782 50.7063 73.9782 49.2174C73.9782 47.7285 75.2603 46.5218 76.8423 46.5218H82.5706C84.1526 46.5218 85.4347 47.7285 85.4347 49.2174C85.4347 50.7063 84.1526 51.9131 82.5706 51.9131Z" fill="black"/>
</g>
<defs>
<clipPath id="clip0">
<rect width="120" height="120" fill="white"/>
</clipPath>
</defs>
</svg>
