<svg width="173" height="171" viewBox="0 0 173 171" fill="none" xmlns="http://www.w3.org/2000/svg">
<circle cx="97" cy="95" r="76" fill="#FFD600"/>
<path d="M56.068 68.7289H56.6892C63.2957 68.7416 69.6401 66.1872 74.3419 61.6214C79.0436 57.0556 81.7223 50.8479 81.795 44.3489C81.8677 37.85 79.3285 31.5858 74.7301 26.9193C70.1316 22.2528 63.8459 19.5616 57.2407 19.4313C50.6354 19.3011 44.2451 21.7423 39.4603 26.2238C34.6754 30.7052 31.8832 36.8643 31.6911 43.3609C31.499 49.8575 33.9226 56.1659 38.4346 60.9134C42.9466 65.6609 49.1818 68.4633 55.7836 68.711C55.7987 68.7128 55.8139 68.7156 55.8292 68.717C55.9087 68.7247 55.9883 68.7289 56.068 68.7289ZM36.521 44.1262C36.521 40.2021 37.7038 36.366 39.9199 33.1032C42.136 29.8404 45.2859 27.2974 48.9711 25.7957C52.6564 24.294 56.7115 23.901 60.6238 24.6666C64.536 25.4322 68.1297 27.3218 70.9502 30.0966C73.7708 32.8714 75.6917 36.4067 76.4698 40.2555C77.248 44.1042 76.8486 48.0935 75.3222 51.719C73.7957 55.3444 71.2107 58.4431 67.894 60.6233C64.5774 62.8034 60.6781 63.9671 56.6892 63.9671C51.3421 63.9611 46.2157 61.8688 42.4348 58.1493C38.6538 54.4297 36.527 49.3865 36.521 44.1262Z" fill="black"/>
<path d="M95.3682 86.043L79.234 70.1706C83.0579 66.9751 86.133 63.002 88.247 58.5244C90.3767 54.0137 91.4796 49.0999 91.4786 44.1262C91.4786 25.2522 75.8707 9.9 56.6893 9.9C37.5079 9.9 21.9 25.2522 21.9 44.1263C21.9 58.7782 31.307 71.3061 44.4884 76.1794V107.615C44.4574 108.582 45.0445 109.376 45.8285 109.789C46.6125 110.202 47.6087 110.241 48.4072 109.681C48.4076 109.68 48.408 109.68 48.4085 109.68L56.6893 104.249L64.9702 109.68C64.9706 109.68 64.971 109.68 64.9714 109.681C65.7711 110.241 66.7669 110.201 67.5506 109.788C68.3341 109.376 68.9206 108.581 68.8902 107.615V93.9454L78.1164 103.021C78.1167 103.021 78.1171 103.021 78.1174 103.022C78.7929 103.726 79.777 103.879 80.6267 103.625C81.4763 103.371 82.2081 102.705 82.3716 101.753C82.3717 101.753 82.3718 101.752 82.3719 101.752L84.3224 92.1527L94.0809 90.2333C94.0814 90.2332 94.0819 90.2331 94.0824 90.233C95.049 90.0735 95.7257 89.3527 95.9836 88.5141C96.2415 87.6756 96.0848 86.7054 95.3695 86.0441C95.369 86.0437 95.3686 86.0434 95.3682 86.043ZM26.9404 44.1263C26.9404 27.9915 40.2843 14.8618 56.6893 14.8618C73.0943 14.8618 86.4383 27.9915 86.4383 44.1263C86.4383 60.261 73.0943 73.3907 56.6893 73.3907C40.2843 73.3907 26.9404 60.261 26.9404 44.1263ZM58.0866 99.2034C57.6726 98.9319 57.1865 98.7872 56.6893 98.7872C56.1922 98.7872 55.706 98.9319 55.2921 99.2034L49.5288 102.983V77.6215C54.251 78.5967 59.1276 78.5967 63.8499 77.6215V102.983L58.0866 99.2034ZM81.6861 87.6111C81.1984 87.707 80.7503 87.9429 80.3983 88.2891C80.0463 88.6354 79.8062 89.0767 79.7085 89.5574L78.351 96.2377L68.8902 86.9305V76.1794C71.0659 75.3746 73.1538 74.3566 75.1224 73.1409L88.4745 86.2765L81.6861 87.6111Z" fill="black" stroke="black" stroke-width="0.2"/>
<path d="M63.0665 56.2262C64.7503 57.1575 66.9491 55.5889 66.5691 53.7226L65.3911 46.7496L70.5106 41.7894C71.9322 40.4997 71.0934 37.9601 69.1726 37.7389L62.0674 36.6861L58.854 30.3634C58.0454 28.6347 55.3332 28.6351 54.5246 30.3634L51.3112 36.6859L44.206 37.7387C42.2848 37.9607 41.4468 40.4987 42.868 41.7892L47.9875 46.7494L46.8095 53.7224C46.4305 55.5887 48.6246 57.1569 50.3121 56.226L56.6893 52.9693L63.0665 56.2262ZM52.3773 49.8059L52.9679 46.3109C53.0315 45.9342 53.0021 45.548 52.8821 45.1849C52.7622 44.8218 52.5552 44.4924 52.2787 44.2244L49.7131 41.7382L53.2744 41.2104C53.6583 41.1536 54.0226 41.0067 54.3367 40.7823C54.6507 40.5578 54.9053 40.2623 55.0789 39.9208L56.6893 36.752L58.2997 39.9209C58.4733 40.2625 58.7279 40.558 59.0419 40.7825C59.356 41.0069 59.7203 41.1538 60.1042 41.2106L63.6655 41.7384L61.0995 44.2254C60.823 44.4934 60.616 44.8228 60.4961 45.1859C60.3761 45.549 60.3467 45.9352 60.4103 46.3119L61.0009 49.8068L57.8044 48.1737C57.4599 47.9978 57.0775 47.906 56.6893 47.906C56.3012 47.906 55.9187 47.9978 55.5742 48.1737L52.3773 49.8059Z" fill="black"/>
</svg>
