<svg width="180" height="36" viewBox="0 0 180 36" fill="none" xmlns="http://www.w3.org/2000/svg">
<path d="M18.0001 22.6L25.4201 28L22.5801 19.28L30.0001 14H20.9001L18.0001 5L15.1001 14H6.00006L13.4201 19.28L10.5801 28L18.0001 22.6Z" fill="#FFD600"/>
<path d="M54.0001 22.6L61.4201 28L58.5801 19.28L66.0001 14H56.9001L54.0001 5L51.1001 14H42.0001L49.4201 19.28L46.5801 28L54.0001 22.6Z" fill="#FFD600"/>
<path d="M90.0001 22.6L97.4201 28L94.5801 19.28L102 14H92.9001L90.0001 5L87.1001 14H78.0001L85.4201 19.28L82.5801 28L90.0001 22.6Z" fill="#FFD600"/>
<path d="M126 22.6L133.42 28L130.58 19.28L138 14H128.9L126 5L123.1 14H114L121.42 19.28L118.58 28L126 22.6Z" fill="#FFD600"/>
<path d="M162 22.6L169.42 28L166.58 19.28L174 14H164.9L162 5L159.1 14H150L157.42 19.28L154.58 28L162 22.6Z" fill="#FFD600"/>
</svg>
