<svg width="24" height="24" viewBox="0 0 24 24" fill="none" xmlns="http://www.w3.org/2000/svg">
<g clip-path="url(#clip0)">
<path d="M23.5001 11.5C23.7801 11.5 24.0001 11.72 24.0001 12C24.0001 12.28 23.7801 12.5 23.5001 12.5H23.0001V11.5H23.5001Z" fill="black"/>
<path d="M12.5001 11.5H23.0001V12.5H12.5001V11.5Z" fill="black"/>
<path d="M21.5 24H12C12.28 24 12.5 23.78 12.5 23.5V23H21.5C22.33 23 23 22.33 23 21.5V12.5H23.5C23.78 12.5 24 12.28 24 12V21.5C24 22.88 22.88 24 21.5 24Z" fill="black"/>
<path d="M24 2.5V12C24 11.72 23.78 11.5 23.5 11.5H23V2.5C23 1.67 22.33 1 21.5 1H12.5V0.5C12.5 0.22 12.28 0 12 0H21.5C22.88 0 24 1.12 24 2.5Z" fill="black"/>
<path d="M20.0001 6C20.2801 6 20.5001 6.22 20.5001 6.5C20.5001 6.78 20.2801 7 20.0001 7H16.0001C15.7201 7 15.5001 6.78 15.5001 6.5C15.5001 6.22 15.7201 6 16.0001 6H20.0001Z" fill="black"/>
<path d="M20.0001 16.0001C20.2801 16.0001 20.5001 16.2201 20.5001 16.5001C20.5001 16.7801 20.2801 17.0001 20.0001 17.0001H16.0001C15.7201 17.0001 15.5001 16.7801 15.5001 16.5001C15.5001 16.2201 15.7201 16.0001 16.0001 16.0001H20.0001Z" fill="black"/>
<path d="M20.0001 19.0001C20.2801 19.0001 20.5001 19.2201 20.5001 19.5001C20.5001 19.7801 20.2801 20.0001 20.0001 20.0001H16.0001C15.7201 20.0001 15.5001 19.7801 15.5001 19.5001C15.5001 19.2201 15.7201 19.0001 16.0001 19.0001H20.0001Z" fill="black"/>
<path d="M12.4999 23V23.5C12.4999 23.78 12.2799 24 11.9999 24C11.7199 24 11.4999 23.78 11.4999 23.5V23H12.4999Z" fill="black"/>
<path d="M11.4999 12.4999H12.4999V22.9999H11.4999V12.4999Z" fill="black"/>
<path d="M11.4999 11.5H12.4999V12.5H11.4999V11.5Z" fill="black"/>
<path d="M11.4999 1.00003H12.4999V11.5H11.4999V1.00003Z" fill="black"/>
<path d="M12.4999 0.5V1H11.4999V0.5C11.4999 0.22 11.7199 0 11.9999 0C12.2799 0 12.4999 0.22 12.4999 0.5Z" fill="black"/>
<path d="M0.999878 11.5H11.4999V12.5H0.999878V11.5Z" fill="black"/>
<path d="M8.00006 6C8.28006 6 8.50006 6.22 8.50006 6.5C8.50006 6.78 8.28006 7 8.00006 7H6.50006V6H8.00006Z" fill="black"/>
<path d="M7.85 19.15C8.05 19.34 8.05 19.66 7.85 19.85C7.76 19.95 7.63 20 7.5 20C7.37 20 7.24 19.95 7.15 19.85L6 18.7L6.7 18L7.85 19.15Z" fill="black"/>
<path d="M7.15 16.1501C7.34 15.9501 7.66 15.9501 7.85 16.1501C8.05 16.3401 8.05 16.6601 7.85 16.8501L6.7 18.0001L6 17.3001L7.15 16.1501Z" fill="black"/>
<path d="M5.29718 17.9991L5.99722 17.299L6.69725 17.9991L5.99722 18.6991L5.29718 17.9991Z" fill="black"/>
<path d="M6.49988 7.00003V8.50003C6.49988 8.78003 6.27988 9.00003 5.99988 9.00003C5.71988 9.00003 5.49988 8.78003 5.49988 8.50003V7.00003H6.49988Z" fill="black"/>
<path d="M5.49988 6H6.49988V7H5.49988V6Z" fill="black"/>
<path d="M6.49988 4.50003V6.00003H5.49988V4.50003C5.49988 4.22003 5.71988 4.00003 5.99988 4.00003C6.27988 4.00003 6.49988 4.22003 6.49988 4.50003Z" fill="black"/>
<path d="M5.99988 17.3001L5.29988 18.0001L4.14988 16.8501C3.94988 16.6601 3.94988 16.3401 4.14988 16.1501C4.33988 15.9501 4.65988 15.9501 4.84988 16.1501L5.99988 17.3001Z" fill="black"/>
<path d="M5.50012 6V7H4.00012C3.72012 7 3.50012 6.78 3.50012 6.5C3.50012 6.22 3.72012 6 4.00012 6H5.50012Z" fill="black"/>
<path d="M4.84988 19.85C4.75988 19.95 4.62988 20 4.49988 20C4.36988 20 4.23988 19.95 4.14988 19.85C3.94988 19.66 3.94988 19.34 4.14988 19.15L5.29988 18L5.99988 18.7L4.84988 19.85Z" fill="black"/>
<path d="M1 11.5V12.5H0.5C0.22 12.5 0 12.28 0 12C0 11.72 0.22 11.5 0.5 11.5H1Z" fill="black"/>
<path d="M0 2.5C0 1.12 1.12 0 2.5 0H12C11.72 0 11.5 0.22 11.5 0.5V1H2.5C1.67 1 1 1.67 1 2.5V11.5H0.5C0.22 11.5 0 11.72 0 12V2.5Z" fill="black"/>
<path d="M1 21.5C1 22.33 1.67 23 2.5 23H11.5V23.5C11.5 23.78 11.72 24 12 24H2.5C1.12 24 0 22.88 0 21.5V12C0 12.28 0.22 12.5 0.5 12.5H1V21.5Z" fill="black"/>
</g>
<defs>
<clipPath id="clip0">
<rect width="24" height="24" fill="white"/>
</clipPath>
</defs>
</svg>
