<svg width="134" height="52" viewBox="0 0 134 52" fill="none" xmlns="http://www.w3.org/2000/svg">
<path d="M30.0496 0.316108L24.0172 18.7558H19.4336L15.3768 6.2695L11.1884 18.7558H6.63115L0.572388 0.316108H4.99792L9.16002 13.2766L13.5065 0.316108H17.4579L21.6727 13.382L25.9665 0.316108H30.0496Z" fill="white"/>
<path d="M43.9584 14.8044H35.3971L33.7639 18.7558H29.391L37.6098 0.316108H41.8246L50.0698 18.7558H45.5916L43.9584 14.8044ZM42.6149 11.5643L39.6909 4.50456L36.7669 11.5643H42.6149Z" fill="white"/>
<path d="M51.9829 0.316108H56.2504V15.2786H65.4966V18.7558H51.9829V0.316108Z" fill="white"/>
<path d="M74.5983 11.5116L72.1221 14.0932V18.7558H67.881V0.316108H72.1221V8.93008L80.2883 0.316108H85.0299L77.3906 8.53495L85.4777 18.7558H80.499L74.5983 11.5116Z" fill="white"/>
<path d="M87.3806 0.316108H91.648V18.7558H87.3806V0.316108Z" fill="white"/>
<path d="M112.936 0.316108V18.7558H109.432L100.239 7.56028V18.7558H96.0242V0.316108H99.5541L108.721 11.5116V0.316108H112.936Z" fill="white"/>
<path d="M129.759 9.24619H133.657V16.7274C132.656 17.4826 131.497 18.0621 130.18 18.466C128.863 18.87 127.537 19.0719 126.203 19.0719C124.288 19.0719 122.567 18.668 121.039 17.8602C119.512 17.0348 118.309 15.902 117.43 14.462C116.57 13.0044 116.14 11.3624 116.14 9.53596C116.14 7.70955 116.57 6.07632 117.43 4.63627C118.309 3.17865 119.52 2.04593 121.066 1.23809C122.611 0.412698 124.35 0 126.282 0C127.897 0 129.364 0.272205 130.681 0.816614C131.998 1.36102 133.104 2.1513 134 3.18743L131.26 5.71631C129.943 4.32894 128.354 3.63526 126.492 3.63526C125.316 3.63526 124.271 3.88112 123.358 4.37284C122.444 4.86457 121.733 5.55825 121.224 6.4539C120.715 7.34954 120.46 8.37689 120.46 9.53596C120.46 10.6775 120.715 11.696 121.224 12.5917C121.733 13.4873 122.436 14.1898 123.331 14.6991C124.244 15.1908 125.281 15.4367 126.44 15.4367C127.669 15.4367 128.775 15.1732 129.759 14.6464V9.24619Z" fill="white"/>
<path fill-rule="evenodd" clip-rule="evenodd" d="M85.0142 22.3455H0V51.0827H85.0142V22.3455ZM34.4655 45.3711C36.0109 46.1965 37.7408 46.6092 39.655 46.6092C41.5692 46.6092 43.2902 46.1965 44.8181 45.3711C46.346 44.5457 47.5489 43.413 48.427 41.973C49.3051 40.5154 49.7441 38.8821 49.7441 37.0733C49.7441 35.2644 49.3051 33.64 48.427 32.1999C47.5489 30.7423 46.346 29.6008 44.8181 28.7754C43.2902 27.95 41.5692 27.5373 39.655 27.5373C37.7408 27.5373 36.0109 27.95 34.4655 28.7754C32.9377 29.6008 31.7347 30.7423 30.8566 32.1999C29.9961 33.64 29.5658 35.2644 29.5658 37.0733C29.5658 38.8821 29.9961 40.5154 30.8566 41.973C31.7347 43.413 32.9377 44.5457 34.4655 45.3711ZM42.6053 42.2364C41.7273 42.7281 40.7438 42.974 39.655 42.974C38.5662 42.974 37.5827 42.7281 36.7046 42.2364C35.8265 41.7271 35.1329 41.0246 34.6236 40.129C34.1319 39.2334 33.886 38.2148 33.886 37.0733C33.886 35.9318 34.1319 34.9132 34.6236 34.0175C35.1329 33.1219 35.8265 32.4282 36.7046 31.9365C37.5827 31.4272 38.5662 31.1726 39.655 31.1726C40.7438 31.1726 41.7273 31.4272 42.6053 31.9365C43.4834 32.4282 44.1683 33.1219 44.66 34.0175C45.1693 34.9132 45.424 35.9318 45.424 37.0733C45.424 38.2148 45.1693 39.2334 44.66 40.129C44.1683 41.0246 43.4834 41.7271 42.6053 42.2364ZM17.3384 27.8534H8.96152V46.2931H17.3384C19.3404 46.2931 21.1054 45.9155 22.6332 45.1604C24.1787 44.3877 25.3729 43.3076 26.2158 41.9203C27.0763 40.5329 27.5066 38.9172 27.5066 37.0733C27.5066 35.2293 27.0763 33.6136 26.2158 32.2263C25.3729 30.8389 24.1787 29.7676 22.6332 29.0125C21.1054 28.2398 19.3404 27.8534 17.3384 27.8534ZM21.5269 41.2617C20.438 42.2803 18.9716 42.7896 17.1277 42.7896H13.229V31.357H17.1277C18.9716 31.357 20.438 31.875 21.5269 32.9112C22.6332 33.9297 23.1864 35.3171 23.1864 37.0733C23.1864 38.8294 22.6332 40.2256 21.5269 41.2617ZM65.4113 36.7835H69.31V44.2648C68.309 45.0199 67.1499 45.5994 65.8328 46.0034C64.5157 46.4073 63.1897 46.6092 61.8551 46.6092C59.9408 46.6092 58.2198 46.2053 56.6919 45.3975C55.1641 44.5721 53.9611 43.4394 53.083 41.9993C52.2225 40.5417 51.7923 38.8997 51.7923 37.0733C51.7923 35.2469 52.2225 33.6136 53.083 32.1736C53.9611 30.716 55.1729 29.5832 56.7183 28.7754C58.2637 27.95 60.0023 27.5373 61.9341 27.5373C63.5498 27.5373 65.0162 27.8095 66.3333 28.3539C67.6504 28.8983 68.7568 29.6886 69.6524 30.7247L66.9128 33.2536C65.5957 31.8663 64.0064 31.1726 62.1448 31.1726C60.9682 31.1726 59.9233 31.4184 59.0101 31.9102C58.0969 32.4019 57.3856 33.0956 56.8763 33.9912C56.3671 34.8869 56.1124 35.9142 56.1124 37.0733C56.1124 38.2148 56.3671 39.2334 56.8763 40.129C57.3856 41.0246 58.0881 41.7271 58.9837 42.2364C59.8969 42.7281 60.9331 42.974 62.0921 42.974C63.3215 42.974 64.4278 42.7106 65.4113 42.1837V36.7835ZM72.9782 45.7663C73.4699 46.258 74.0758 46.5039 74.7958 46.5039C75.5158 46.5039 76.1217 46.258 76.6134 45.7663C77.1051 45.2745 77.351 44.6599 77.351 43.9223C77.351 43.1672 77.1051 42.5613 76.6134 42.1047C76.1217 41.6305 75.5158 41.3934 74.7958 41.3934C74.0758 41.3934 73.4699 41.6305 72.9782 42.1047C72.4864 42.5613 72.2406 43.1672 72.2406 43.9223C72.2406 44.6599 72.4864 45.2745 72.9782 45.7663Z" fill="white"/>
</svg>
